<svg width="18" height="18" viewBox="0 0 18 18" fill="none" xmlns="http://www.w3.org/2000/svg">
<path d="M15.7835 12.7676L15.7837 12.7488C15.7933 12.3629 15.5122 12.0312 15.1368 11.9782C14.3502 11.8744 13.5779 11.682 12.8329 11.404C12.5551 11.2996 12.242 11.3664 12.034 11.5721L11.0686 12.5374C10.8267 12.7793 10.4529 12.8298 10.1555 12.6607C8.13358 11.511 6.4595 9.8369 5.30982 7.81502C5.14069 7.51758 5.19115 7.14379 5.4331 6.90184L6.39543 5.93953C6.60408 5.72853 6.67087 5.41539 6.56581 5.13591C6.28844 4.39258 6.09604 3.62026 5.99326 2.84067C5.93986 2.46289 5.61468 2.18323 5.22568 2.18702L2.94609 2.18702C2.73273 2.18722 2.52928 2.27709 2.38543 2.43467C2.24159 2.59225 2.17059 2.80303 2.18863 3.00367C2.42552 5.23442 3.18455 7.37799 4.40782 9.26634C5.51498 11.0087 6.99219 12.4859 8.74045 13.5969C10.6147 14.8123 12.7479 15.5711 14.955 15.8111C15.1681 15.8304 15.3795 15.7589 15.5372 15.6142C15.6949 15.4695 15.7843 15.265 15.7835 15.0479V12.7676ZM17.3037 15.0448C17.3063 15.6869 17.0381 16.3003 16.5649 16.7344C16.0918 17.1684 15.4576 17.3829 14.8044 17.3238C12.3473 17.0568 9.98704 16.2171 7.91923 14.8761C5.98851 13.6493 4.35161 12.0124 3.12835 10.0873C1.77885 8.00412 0.939036 5.63239 0.675766 3.15235C0.618158 2.51486 0.831137 1.88251 1.26268 1.40977C1.69422 0.937027 2.30458 0.667426 2.94538 0.666823L5.2182 0.66686C6.36275 0.655595 7.3383 1.49457 7.49945 2.6349C7.5882 3.30782 7.75279 3.96853 7.98944 4.60272C8.30268 5.43603 8.10233 6.37543 7.47337 7.01145L6.92831 7.55652C7.82208 8.95863 9.01185 10.1484 10.414 11.0422L10.962 10.4941C11.595 9.86815 12.5345 9.6678 13.366 9.9804C14.002 10.2177 14.6627 10.3823 15.3424 10.472C16.4854 10.6332 17.3271 11.623 17.3037 12.7761L17.3037 15.0448Z" fill="#5A8DF4"/>
</svg>
