<svg width="16" height="18" viewBox="0 0 16 18" fill="none" xmlns="http://www.w3.org/2000/svg">
<g opacity="0.5">
<path fill-rule="evenodd" clip-rule="evenodd" d="M2.4 3.27306C1.95817 3.27306 1.6 3.63937 1.6 4.09123V15.5456C1.6 15.9975 1.95817 16.3638 2.4 16.3638H13.6C14.0418 16.3638 14.4 15.9975 14.4 15.5456V4.09123C14.4 3.63937 14.0418 3.27306 13.6 3.27306H2.4ZM0 4.09123C0 2.73564 1.07452 1.63672 2.4 1.63672H13.6C14.9255 1.63672 16 2.73564 16 4.09123V15.5456C16 16.9012 14.9255 18.0001 13.6 18.0001H2.4C1.07452 18.0001 0 16.9012 0 15.5456V4.09123Z" fill="#5A8DF4"/>
<path fill-rule="evenodd" clip-rule="evenodd" d="M11.2 0C11.6418 0 12 0.366308 12 0.818171V4.09086C12 4.54272 11.6418 4.90903 11.2 4.90903C10.7582 4.90903 10.4 4.54272 10.4 4.09086V0.818171C10.4 0.366308 10.7582 0 11.2 0Z" fill="#5A8DF4"/>
<path fill-rule="evenodd" clip-rule="evenodd" d="M4.8 0C5.24183 0 5.6 0.366308 5.6 0.818171V4.09086C5.6 4.54272 5.24183 4.90903 4.8 4.90903C4.35817 4.90903 4 4.54272 4 4.09086V0.818171C4 0.366308 4.35817 0 4.8 0Z" fill="#5A8DF4"/>
<path fill-rule="evenodd" clip-rule="evenodd" d="M0 7.29492C0 6.88071 0.358172 6.54492 0.8 6.54492H15.2C15.6418 6.54492 16 6.88071 16 7.29492C16 7.70914 15.6418 8.04492 15.2 8.04492H0.8C0.358172 8.04492 0 7.70914 0 7.29492Z" fill="#5A8DF4"/>
</g>
</svg>
