<svg width="56" height="56" viewBox="0 0 56 56" fill="none" xmlns="http://www.w3.org/2000/svg">
<circle cx="28" cy="28" r="28" fill="#FC3E3E"/>
<path d="M37.8064 33.4252L37.8067 33.3981C37.8206 32.8425 37.4151 32.3648 36.8736 32.2885C35.7389 32.1391 34.6249 31.862 33.5501 31.4617C33.1494 31.3113 32.6977 31.4075 32.3977 31.7036L31.0052 33.0937C30.6562 33.4421 30.117 33.5148 29.6879 33.2712C26.7714 31.6157 24.3565 29.205 22.6981 26.2935C22.4541 25.8652 22.5269 25.3269 22.8759 24.9785L24.2641 23.5928C24.565 23.289 24.6614 22.838 24.5098 22.4356C24.1097 21.3652 23.8322 20.2531 23.6839 19.1304C23.6069 18.5864 23.1378 18.1837 22.5767 18.1892L19.2883 18.1892C18.9806 18.1895 18.6871 18.3189 18.4796 18.5458C18.2721 18.7727 18.1697 19.0763 18.1957 19.3652C18.5374 22.5774 19.6323 25.6642 21.3969 28.3834C22.994 30.8924 25.1249 33.0196 27.6468 34.6194C30.3504 36.3696 33.4275 37.4623 36.6113 37.8079C36.9188 37.8356 37.2237 37.7326 37.4512 37.5243C37.6787 37.3159 37.8077 37.0215 37.8064 36.7089V33.4252ZM39.9993 36.7044C40.0031 37.629 39.6162 38.5123 38.9337 39.1374C38.2512 39.7624 37.3363 40.0713 36.3941 39.9861C32.8497 39.6016 29.445 38.3926 26.4621 36.4615C23.6771 34.6948 21.3158 32.3377 19.5512 29.5655C17.6046 26.5658 16.3931 23.1505 16.0134 19.5793C15.9303 18.6613 16.2375 17.7507 16.86 17.0699C17.4825 16.3892 18.3629 16.001 19.2873 16.0001L22.5659 16.0002C24.2169 15.9839 25.6242 17.1921 25.8566 18.8341C25.9846 19.8031 26.2221 20.7546 26.5634 21.6678C27.0153 22.8678 26.7263 24.2205 25.819 25.1364L25.0327 25.9213C26.322 27.9403 28.0383 29.6536 30.0608 30.9406L30.8514 30.1514C31.7646 29.25 33.1197 28.9615 34.3193 29.4117C35.2366 29.7534 36.1896 29.9904 37.1701 30.1195C38.819 30.3517 40.0331 31.7771 39.9993 33.4375L39.9993 36.7044Z" fill="white"/>
</svg>
