<svg width="14" height="14" viewBox="0 0 14 14" fill="none" xmlns="http://www.w3.org/2000/svg">
<path fill-rule="evenodd" clip-rule="evenodd" d="M9.65078 1.23836C9.13081 1.23836 8.63213 1.43421 8.26446 1.78282L2.26306 7.47308C1.65031 8.05407 1.30607 8.84204 1.30607 9.66368C1.30607 10.4853 1.65031 11.2733 2.26306 11.8543C2.87581 12.4352 3.70687 12.7616 4.57343 12.7616C5.43999 12.7616 6.27105 12.4352 6.8838 11.8543L12.8852 6.16401C13.1402 5.9222 13.5537 5.9222 13.8087 6.16401C14.0638 6.40581 14.0638 6.79785 13.8087 7.03966L7.80733 12.7299C6.94965 13.5431 5.78638 14 4.57343 14C3.36048 14 2.19721 13.5431 1.33953 12.7299C0.481842 11.9167 0 10.8137 0 9.66368C0 8.51361 0.481842 7.41065 1.33953 6.59743L7.34092 0.907171C7.95354 0.326319 8.78442 0 9.65078 0C10.5171 0 11.348 0.326319 11.9606 0.907171C12.5733 1.48802 12.9174 2.27583 12.9174 3.09728C12.9174 3.91872 12.5733 4.70653 11.9606 5.28738L5.95271 10.9776C5.58517 11.3261 5.08668 11.5219 4.5669 11.5219C4.04712 11.5219 3.54863 11.3261 3.18109 10.9776C2.81355 10.6292 2.60707 10.1565 2.60707 9.66368C2.60707 9.17084 2.81355 8.6982 3.18109 8.34971L8.72563 3.09881C8.98081 2.85715 9.39429 2.85738 9.64916 3.09932C9.90404 3.34127 9.9038 3.73331 9.64862 3.97498L4.10462 9.22536C3.98219 9.34159 3.91314 9.4994 3.91314 9.66368C3.91314 9.82808 3.98201 9.98574 4.10462 10.102C4.22722 10.2182 4.39351 10.2835 4.5669 10.2835C4.74029 10.2835 4.90657 10.2182 5.02918 10.102L11.0371 4.41173C11.4046 4.06314 11.6113 3.59018 11.6113 3.09728C11.6113 2.60426 11.4048 2.13144 11.0371 1.78282C10.6694 1.43421 10.1708 1.23836 9.65078 1.23836Z" fill="#5A8DF4"/>
</svg>
