<svg width="137" height="42" viewBox="0 0 137 42" fill="none" xmlns="http://www.w3.org/2000/svg">
<path fill-rule="evenodd" clip-rule="evenodd" d="M130.928 41H5.99724C3.24876 41 1 38.75 1 36V6C1 3.25 3.24876 1 5.99724 1H130.928C133.677 1 135.925 3.25 135.925 6V36C135.925 38.75 133.677 41 130.928 41Z" fill="#0A0B09"/>
<path d="M130.928 41H5.99724C3.24876 41 1 38.75 1 36V6C1 3.25 3.24876 1 5.99724 1H130.928C133.677 1 135.925 3.25 135.925 6V36C135.925 38.75 133.677 41 130.928 41" stroke="white" stroke-width="0.5"/>
<path fill-rule="evenodd" clip-rule="evenodd" d="M48.3927 11.243C48.3927 12.081 48.1439 12.749 47.6472 13.246C47.0835 13.838 46.3489 14.134 45.4444 14.134C44.5789 14.134 43.8433 13.834 43.2376 13.233C42.6319 12.633 42.3291 11.888 42.3291 11C42.3291 10.111 42.6319 9.367 43.2376 8.767C43.8433 8.166 44.5789 7.866 45.4444 7.866C45.8741 7.866 46.2849 7.95 46.6757 8.117C47.0655 8.285 47.3793 8.508 47.6132 8.788L47.0865 9.315C46.6887 8.841 46.143 8.604 45.4444 8.604C44.8127 8.604 44.268 8.825 43.8073 9.27C43.3465 9.714 43.1157 10.291 43.1157 11C43.1157 11.709 43.3465 12.286 43.8073 12.73C44.268 13.175 44.8127 13.396 45.4444 13.396C46.114 13.396 46.6727 13.173 47.1195 12.727C47.4093 12.436 47.5772 12.031 47.6222 11.511H45.4444V10.791H48.3508C48.3788 10.947 48.3927 11.098 48.3927 11.243Z" fill="#FFFFFE"/>
<path fill-rule="evenodd" clip-rule="evenodd" d="M48.3928 11.243H48.2929C48.2919 12.062 48.053 12.698 47.5773 13.175L47.5763 13.176L47.5753 13.177C47.0296 13.748 46.327 14.033 45.4445 14.034C44.6019 14.033 43.8973 13.745 43.3087 13.162C42.721 12.579 42.4301 11.866 42.4291 11C42.4301 10.134 42.721 9.42099 43.3087 8.83799C43.8973 8.25499 44.6019 7.96699 45.4445 7.96599C45.8612 7.96599 46.258 8.04699 46.6358 8.20899C47.0146 8.37199 47.3144 8.58599 47.5373 8.85199L47.6133 8.78799L47.5423 8.71699L47.0156 9.24499L47.0866 9.31499L47.1625 9.25099C46.7478 8.75299 46.1641 8.50199 45.4445 8.50399C44.7898 8.50299 44.2142 8.73699 43.7374 9.19799C43.2567 9.65999 43.0148 10.269 43.0158 11C43.0148 11.731 43.2567 12.34 43.7374 12.802C44.2142 13.263 44.7898 13.497 45.4445 13.497C46.1361 13.498 46.7258 13.263 47.1905 12.797C47.5003 12.486 47.6762 12.056 47.7222 11.52L47.7312 11.411H45.5444V10.89H48.3509V10.791L48.2519 10.808C48.2789 10.96 48.2929 11.104 48.2929 11.243H48.4928C48.4928 11.091 48.4778 10.935 48.4488 10.773L48.4338 10.691H45.3445V11.611H47.6223V11.511L47.5223 11.503C47.4783 12.006 47.3184 12.385 47.0486 12.656C46.6188 13.084 46.0921 13.296 45.4445 13.297C44.8368 13.296 44.3211 13.086 43.8763 12.659C43.4356 12.232 43.2167 11.688 43.2157 11C43.2167 10.312 43.4356 9.76799 43.8763 9.34099C44.3211 8.91399 44.8368 8.70399 45.4445 8.70399C46.1211 8.70499 46.6308 8.92899 47.0096 9.37999L47.0796 9.46299L47.6842 8.85799L47.7492 8.79399L47.6902 8.72299C47.4444 8.42999 47.1165 8.19799 46.7148 8.02499C46.312 7.85299 45.8872 7.76599 45.4445 7.76599C44.556 7.76499 43.7894 8.07699 43.1677 8.69599C42.5431 9.31299 42.2283 10.089 42.2293 11C42.2283 11.911 42.5431 12.687 43.1677 13.305C43.7894 13.923 44.556 14.235 45.4445 14.234C46.37 14.235 47.1375 13.927 47.7202 13.315L47.6473 13.246L47.7182 13.317C48.2359 12.799 48.4928 12.1 48.4928 11.243H48.3928Z" fill="#FFFFFE"/>
<path fill-rule="evenodd" clip-rule="evenodd" d="M52.9994 8.737H50.2679V10.64H52.7305V11.36H50.2679V13.263H52.9994V14H49.4983V8H52.9994V8.737Z" fill="#FFFFFE"/>
<path fill-rule="evenodd" clip-rule="evenodd" d="M52.9992 8.73699V8.63699H50.1678V10.74H52.6304V11.26H50.1678V13.363H52.8993V13.9H49.5981V8.09999H52.8993V8.73699H52.9992V8.63699V8.73699H53.0991V7.89999H49.3982V14.1H53.0991V13.163H50.3677V11.46H52.8303V10.54H50.3677V8.83699H53.0991V8.73699H52.9992Z" fill="#FFFFFE"/>
<path fill-rule="evenodd" clip-rule="evenodd" d="M56.2484 14H55.4768V8.737H53.8027V8H57.9235V8.737H56.2484V14Z" fill="#FFFFFE"/>
<path fill-rule="evenodd" clip-rule="evenodd" d="M56.2485 14V13.9H55.5769V8.63699H53.9018V8.09999H57.8236V8.63699H56.1486V14H56.2485V13.9V14H56.3484V8.83699H58.0235V7.89999H53.7019V8.83699H55.377V14.1H56.3484V14H56.2485Z" fill="#FFFFFE"/>
<path fill-rule="evenodd" clip-rule="evenodd" d="M60.9048 14H61.6754V8H60.9048V14Z" fill="#FFFFFE"/>
<path fill-rule="evenodd" clip-rule="evenodd" d="M60.9049 14H61.0048V8.09999H61.5745V13.9H60.9049V14H61.0048H60.9049V14.1H61.7754V7.89999H60.8049V14.1H60.9049V14Z" fill="#FFFFFE"/>
<path fill-rule="evenodd" clip-rule="evenodd" d="M65.0926 14H64.322V8.737H62.647V8H66.7677V8.737H65.0926V14Z" fill="#FFFFFE"/>
<path fill-rule="evenodd" clip-rule="evenodd" d="M65.0925 14V13.9H64.4218V8.63699H62.7468V8.09999H66.6676V8.63699H64.9925V14H65.0925V13.9V14H65.1924V8.83699H66.8675V7.89999H62.5469V8.83699H64.2219V14.1H65.1924V14H65.0925Z" fill="#FFFFFE"/>
<path fill-rule="evenodd" clip-rule="evenodd" d="M72.3696 14.134C73.2461 14.134 73.9797 13.831 74.5684 13.225C75.1571 12.619 75.4519 11.877 75.4519 11C75.4519 10.128 75.1561 9.388 74.5644 8.779C73.9727 8.17 73.2411 7.866 72.3696 7.866C71.4931 7.866 70.7605 8.169 70.1718 8.775C69.5822 9.381 69.2883 10.123 69.2883 11C69.2883 11.877 69.5822 12.619 70.1718 13.225C70.7605 13.831 71.4931 14.134 72.3696 14.134ZM72.3696 13.396C71.728 13.396 71.1853 13.172 70.7405 12.722C70.2978 12.272 70.0749 11.698 70.0749 11C70.0749 10.302 70.2978 9.728 70.7405 9.278C71.1853 8.828 71.728 8.604 72.3696 8.604C73.0123 8.604 73.556 8.828 73.9987 9.278C74.4425 9.728 74.6654 10.302 74.6654 11C74.6654 11.698 74.4425 12.272 73.9987 12.722C73.556 13.172 73.0123 13.396 72.3696 13.396Z" fill="#FFFFFE"/>
<path fill-rule="evenodd" clip-rule="evenodd" d="M74.4973 13.155L74.5683 13.225L74.6402 13.294C74.0346 13.92 73.269 14.235 72.3695 14.234C71.47 14.235 70.7054 13.92 70.0997 13.294C69.4931 12.672 69.1872 11.899 69.1882 11C69.1872 10.101 69.4931 9.32899 70.0997 8.70599C70.7054 8.08099 71.47 7.76499 72.3695 7.76599C73.264 7.76499 74.0276 8.08199 74.6362 8.70999C75.2449 9.33499 75.5527 10.106 75.5517 11C75.5527 11.899 75.2469 12.672 74.6402 13.294L74.4973 13.155ZM72.3695 14.034C73.223 14.033 73.9246 13.743 74.4973 13.155C75.068 12.566 75.3508 11.855 75.3518 11C75.3508 10.151 75.067 9.44099 74.4933 8.84899C73.9166 8.25899 73.218 7.96699 72.3695 7.96599C71.5159 7.96699 70.8153 8.25699 70.2437 8.84499C69.672 9.43399 69.3891 10.145 69.3881 11C69.3891 11.855 69.672 12.566 70.2437 13.155C70.8153 13.743 71.5159 14.033 72.3695 14.034ZM70.8118 12.6525L70.8123 12.652C70.3876 12.221 70.1757 11.677 70.1747 11C70.1757 10.323 70.3876 9.77899 70.8123 9.34799H70.8113C71.2401 8.91599 71.7508 8.70499 72.3695 8.70399C72.9891 8.70499 73.5008 8.91599 73.9276 9.34799C74.3524 9.77999 74.5643 10.323 74.5653 11C74.5643 11.677 74.3524 12.22 73.9276 12.652C73.5008 13.084 72.9891 13.296 72.3695 13.297C71.7511 13.295 71.2405 13.0842 70.8118 12.6525ZM72.3695 13.497C71.7038 13.498 71.1302 13.26 70.6694 12.792C70.2077 12.325 69.9738 11.719 69.9748 11C69.9738 10.281 70.2077 9.67599 70.6694 9.20799C71.1302 8.73999 71.7038 8.50299 72.3695 8.50399C73.0351 8.50299 73.6098 8.73999 74.0695 9.20799C74.5333 9.67599 74.7661 10.281 74.7652 11C74.7661 11.719 74.5333 12.325 74.0695 12.792C73.6098 13.26 73.0351 13.498 72.3695 13.497Z" fill="#FFFFFE"/>
<path fill-rule="evenodd" clip-rule="evenodd" d="M76.5332 14V8H77.4717L80.3861 12.667H80.4191L80.3861 11.511V8H81.1566V14H80.3521L77.3038 9.106H77.2698L77.3038 10.263V14H76.5332Z" fill="#FFFFFE"/>
<path fill-rule="evenodd" clip-rule="evenodd" d="M76.5333 14H76.6332V8.09999H77.4158L80.3302 12.768H80.5221L80.4861 11.51V8.09999H81.0568V13.9H80.4082L77.3588 9.00599H77.1679L77.2039 10.264V13.9H76.5333V14H76.6332H76.5333V14.1H77.4038V10.261L77.3698 9.10399L77.2699 9.10599V9.20599H77.3039V9.10599L77.2189 9.15899L80.2972 14.1H81.2567V7.89999H80.2862V11.513L80.3192 12.67L80.4191 12.667V12.568H80.3862V12.667L80.4711 12.615L77.5267 7.89999H76.4333V14.1H76.5333V14Z" fill="#FFFFFE"/>
<path fill-rule="evenodd" clip-rule="evenodd" d="M48.7176 25.861V24.057H54.7872C54.8522 24.379 54.8842 24.765 54.8842 25.184C54.8842 26.538 54.5134 28.213 53.322 29.405C52.1627 30.614 50.6815 31.258 48.7176 31.258C45.0786 31.258 42.0193 28.294 42.0193 24.653C42.0193 21.012 45.0786 18.047 48.7176 18.047C50.7305 18.047 52.1627 18.837 53.2421 19.868L51.9698 21.141C51.1972 20.416 50.1508 19.852 48.7176 19.852C46.0611 19.852 43.9832 21.994 43.9832 24.653C43.9832 27.311 46.0611 29.453 48.7176 29.453C50.4396 29.453 51.4221 28.761 52.0507 28.133C52.5655 27.617 52.9033 26.876 53.0322 25.861H48.7176ZM83.5833 31H85.4513V18.498H83.5833V31ZM98.2812 18.499H102.75C104.817 18.499 106.848 19.996 106.848 22.381C106.848 24.766 104.817 26.264 102.75 26.264H100.145V31H98.2812V18.499ZM109.742 31H107.877V18.499H109.742V31ZM122.537 28.422L124.675 23.002H126.748L121.621 34.791H119.675L121.572 30.577L118.245 23.002H120.254L122.473 28.422H122.537ZM114.098 29.58C113.487 29.58 112.635 29.275 112.635 28.519C112.635 27.554 113.697 27.184 114.612 27.184C115.433 27.184 115.817 27.361 116.316 27.602C116.171 28.76 115.175 29.58 114.098 29.58ZM110.996 24.643C111.575 23.324 112.973 22.729 114.323 22.729C116.461 22.729 118.116 23.967 118.116 26.187V30.979H116.316V30.014H116.252C115.817 30.674 115.127 31.237 113.873 31.237C112.233 31.237 110.77 30.159 110.77 28.486C110.77 26.653 112.587 25.672 114.371 25.672C115.256 25.672 115.978 25.961 116.316 26.154V26.026C116.3 24.996 115.32 24.417 114.355 24.417C113.664 24.417 113.005 24.643 112.651 25.334L110.996 24.643ZM102.798 24.524H100.145V20.239H102.798C104.192 20.239 104.983 21.394 104.983 22.381C104.983 23.35 104.192 24.524 102.798 24.524ZM78.3822 29.582C77.0939 29.582 76.0155 28.503 76.0155 27.021C76.0155 25.523 77.0939 24.427 78.3822 24.427C79.6545 24.427 80.6519 25.523 80.6519 27.021C80.6519 28.503 79.6545 29.582 78.3822 29.582ZM80.459 23.702H80.523V23.009H82.295V30.646C82.295 33.787 80.443 35.076 78.2532 35.076C76.1924 35.076 74.9521 33.691 74.4853 32.563L76.1114 31.886C76.4013 32.579 77.1099 33.401 78.2532 33.401C79.6545 33.401 80.523 32.531 80.523 30.903V30.291H80.459C80.0403 30.807 79.2357 31.258 78.2213 31.258C76.0954 31.258 74.1475 29.405 74.1475 27.021C74.1475 24.62 76.0954 22.752 78.2213 22.752C79.2357 22.752 80.0403 23.203 80.459 23.702ZM90.4255 24.395C89.476 24.395 88.1558 25.233 88.2037 26.876L92.0036 25.297C91.7948 24.765 91.1671 24.395 90.4255 24.395ZM94.0005 25.458C93.6467 24.508 92.5673 22.752 90.3615 22.752C88.1718 22.752 86.3528 24.475 86.3528 27.005C86.3528 29.389 88.1558 31.258 90.5704 31.258C92.5194 31.258 93.6467 30.066 94.1135 29.373L92.6643 28.406C92.1815 29.115 91.5209 29.582 90.5704 29.582C89.621 29.582 88.9443 29.147 88.5096 28.294L94.1934 25.942L94.0005 25.458ZM59.7905 29.582C58.5022 29.582 57.3908 28.519 57.3908 27.005C57.3908 25.474 58.5022 24.427 59.7905 24.427C61.0777 24.427 62.1891 25.474 62.1891 27.005C62.1891 28.519 61.0777 29.582 59.7905 29.582ZM55.5228 27.005C55.5228 24.54 57.4388 22.752 59.7905 22.752C62.1412 22.752 64.0571 24.54 64.0571 27.005C64.0571 29.453 62.1412 31.258 59.7905 31.258C57.4388 31.258 55.5228 29.453 55.5228 27.005ZM69.0983 29.582C67.81 29.582 66.6986 28.519 66.6986 27.005C66.6986 25.474 67.81 24.427 69.0983 24.427C70.3866 24.427 71.497 25.474 71.497 27.005C71.497 28.519 70.3866 29.582 69.0983 29.582ZM64.8317 27.005C64.8317 24.54 66.7476 22.752 69.0983 22.752C71.449 22.752 73.3649 24.54 73.3649 27.005C73.3649 29.453 71.449 31.258 69.0983 31.258C66.7476 31.258 64.8317 29.453 64.8317 27.005Z" fill="#FFFFFE"/>
<path fill-rule="evenodd" clip-rule="evenodd" d="M11.4293 8.54701C11.1384 8.85501 10.9675 9.33201 10.9675 9.95101V32.049C10.9675 32.668 11.1384 33.145 11.4293 33.453L11.5032 33.525L23.8754 21.146V20.854L11.5032 8.47501L11.4293 8.54701Z" fill="#60C2E3"/>
<mask id="mask0" mask-type="alpha" maskUnits="userSpaceOnUse" x="23" y="16" width="12" height="10">
<path fill-rule="evenodd" clip-rule="evenodd" d="M27.9982 25.274L23.8755 21.146V20.854L28.0002 16.727L32.9795 19.557C34.3747 20.351 34.3747 21.649 32.9795 22.442L28.0932 25.22L27.9982 25.274Z" fill="white"/>
</mask>
<g mask="url(#mask0)">
<path fill-rule="evenodd" clip-rule="evenodd" d="M27.9982 25.274L23.8755 21.146V20.854L28.0002 16.727L32.9795 19.557C34.3747 20.351 34.3747 21.649 32.9795 22.442L28.0932 25.22L27.9982 25.274Z" fill="url(#paint0_linear)"/>
</g>
<mask id="mask1" mask-type="alpha" maskUnits="userSpaceOnUse" x="11" y="21" width="18" height="13">
<path fill-rule="evenodd" clip-rule="evenodd" d="M28.093 25.22L23.8753 21L11.4292 33.453C11.8899 33.94 12.6495 34 13.5051 33.514L28.093 25.22Z" fill="white"/>
</mask>
<g mask="url(#mask1)">
<path fill-rule="evenodd" clip-rule="evenodd" d="M28.093 25.22L23.8753 21L11.4292 33.453C11.8899 33.94 12.6495 34 13.5051 33.514L28.093 25.22Z" fill="url(#paint1_linear)"/>
</g>
<mask id="mask2" mask-type="alpha" maskUnits="userSpaceOnUse" x="11" y="8" width="18" height="13">
<path fill-rule="evenodd" clip-rule="evenodd" d="M28.093 16.78L13.5051 8.486C12.6495 8 11.8899 8.06 11.4292 8.547L23.8753 21L28.093 16.78Z" fill="white"/>
</mask>
<g mask="url(#mask2)">
<path fill-rule="evenodd" clip-rule="evenodd" d="M28.093 16.78L13.5051 8.486C12.6495 8 11.8899 8.06 11.4292 8.547L23.8753 21L28.093 16.78Z" fill="url(#paint2_linear)"/>
</g>
<defs>
<linearGradient id="paint0_linear" x1="32.0718" y1="10.827" x2="7.90822" y2="10.827" gradientUnits="userSpaceOnUse">
<stop stop-color="#EC942D"/>
<stop offset="1" stop-color="#FBDE1E"/>
</linearGradient>
<linearGradient id="paint1_linear" x1="11.0565" y1="14.5306" x2="-4.86212" y2="41.3162" gradientUnits="userSpaceOnUse">
<stop stop-color="#DD4245"/>
<stop offset="1" stop-color="#B72162"/>
</linearGradient>
<linearGradient id="paint2_linear" x1="-9.06595" y1="3.02027" x2="3.93128" y2="24.8902" gradientUnits="userSpaceOnUse">
<stop stop-color="#6CB966"/>
<stop offset="1" stop-color="#299567"/>
</linearGradient>
</defs>
</svg>
