<svg width="16" height="16" viewBox="0 0 16 16" fill="none" xmlns="http://www.w3.org/2000/svg">
<path fill-rule="evenodd" clip-rule="evenodd" d="M8 1.45455C4.38505 1.45455 1.45455 4.38505 1.45455 8C1.45455 11.615 4.38505 14.5455 8 14.5455C11.615 14.5455 14.5455 11.615 14.5455 8C14.5455 4.38505 11.615 1.45455 8 1.45455ZM0 8C0 3.58172 3.58172 0 8 0C12.4183 0 16 3.58172 16 8C16 12.4183 12.4183 16 8 16C3.58172 16 0 12.4183 0 8Z" fill="white"/>
<path fill-rule="evenodd" clip-rule="evenodd" d="M8.18775 5.10879C7.84919 5.05072 7.501 5.11434 7.20485 5.28839C6.9087 5.46243 6.68371 5.73568 6.56972 6.05972C6.43643 6.43862 6.02122 6.63773 5.64232 6.50444C5.26342 6.37115 5.06431 5.95594 5.1976 5.57703C5.42558 4.92896 5.87556 4.38247 6.46786 4.03438C7.06015 3.68628 7.75653 3.55904 8.43365 3.67518C9.11077 3.79132 9.72494 4.14336 10.1674 4.66894C10.6097 5.19441 10.8519 5.85945 10.8509 6.54631C10.8506 7.6593 10.0254 8.3943 9.43617 8.78714C9.11935 8.99835 8.8077 9.15366 8.57812 9.25569C8.4623 9.30717 8.36477 9.34623 8.2945 9.373C8.2593 9.38641 8.23076 9.3968 8.20999 9.40419L8.18473 9.41304L8.17668 9.41578L8.17385 9.41674L8.17274 9.41711C8.17252 9.41719 8.17183 9.41742 7.94184 8.72747L8.17183 9.41742C7.79078 9.54443 7.37891 9.3385 7.25189 8.95745C7.12496 8.57665 7.33053 8.16508 7.7111 8.03777L7.71017 8.03808C7.71024 8.03806 7.7103 8.03804 7.7111 8.03777L7.7227 8.0337C7.73389 8.02972 7.75223 8.02307 7.77669 8.01375C7.82573 7.99507 7.89865 7.96595 7.98738 7.92651C8.16689 7.84673 8.4007 7.72931 8.62933 7.57688C9.13086 7.24253 9.39639 6.88684 9.39639 6.54565L9.39639 6.54456C9.3969 6.20106 9.27582 5.86846 9.05461 5.60567C8.83339 5.34288 8.52631 5.16686 8.18775 5.10879Z" fill="white"/>
<path fill-rule="evenodd" clip-rule="evenodd" d="M7.99998 10.9092C8.40164 10.9092 8.72725 11.2348 8.72725 11.6365V11.7092C8.72725 12.1108 8.40164 12.4365 7.99998 12.4365C7.59832 12.4365 7.27271 12.1108 7.27271 11.7092V11.6365C7.27271 11.2348 7.59832 10.9092 7.99998 10.9092Z" fill="white"/>
</svg>
