<svg width="16" height="13" viewBox="0 0 16 13" fill="none" xmlns="http://www.w3.org/2000/svg">
<path fill-rule="evenodd" clip-rule="evenodd" d="M2.18192 1.44444C1.78359 1.44444 1.45466 1.77109 1.45466 2.16667V10.8333C1.45466 11.2289 1.78359 11.5556 2.18192 11.5556H13.8182C14.2165 11.5556 14.5455 11.2289 14.5455 10.8333V2.16667C14.5455 1.77109 14.2165 1.44444 13.8182 1.44444H2.18192ZM0.00012207 2.16667C0.00012207 0.97335 0.980271 0 2.18192 0H13.8182C15.0198 0 16 0.97335 16 2.16667V10.8333C16 12.0266 15.0198 13 13.8182 13H2.18192C0.980271 13 0.00012207 12.0266 0.00012207 10.8333V2.16667Z" fill="white"/>
<path fill-rule="evenodd" clip-rule="evenodd" d="M0.131529 1.75245C0.361865 1.42568 0.815338 1.34621 1.14439 1.57495L8 6.34059L14.8556 1.57495C15.1847 1.34621 15.6381 1.42568 15.8685 1.75245C16.0988 2.07922 16.0188 2.52955 15.6897 2.75829L8.41706 7.81384C8.16665 7.98792 7.83335 7.98792 7.58294 7.81384L0.310269 2.75829C-0.0187823 2.52955 -0.0988069 2.07922 0.131529 1.75245Z" fill="white"/>
</svg>
