<svg width="16" height="16" viewBox="0 0 16 16" fill="none" xmlns="http://www.w3.org/2000/svg">
<path fill-rule="evenodd" clip-rule="evenodd" d="M2.4 1.6C2.18783 1.6 1.98434 1.68429 1.83431 1.83431C1.68429 1.98434 1.6 2.18783 1.6 2.4V13.6C1.6 13.8122 1.68429 14.0157 1.83431 14.1657C1.98434 14.3157 2.18783 14.4 2.4 14.4H5.6C6.04183 14.4 6.4 14.7582 6.4 15.2C6.4 15.6418 6.04183 16 5.6 16H2.4C1.76348 16 1.15303 15.7471 0.702944 15.2971C0.252856 14.847 0 14.2365 0 13.6V2.4C0 1.76348 0.252856 1.15303 0.702944 0.702944C1.15303 0.252856 1.76348 0 2.4 0H5.6C6.04183 0 6.4 0.358172 6.4 0.8C6.4 1.24183 6.04183 1.6 5.6 1.6H2.4Z" fill="#5A8DF4"/>
<path fill-rule="evenodd" clip-rule="evenodd" d="M10.6343 3.43451C10.9468 3.12209 11.4533 3.12209 11.7657 3.43451L15.7657 7.43451C16.0781 7.74693 16.0781 8.25346 15.7657 8.56588L11.7657 12.5659C11.4533 12.8783 10.9468 12.8783 10.6343 12.5659C10.3219 12.2535 10.3219 11.7469 10.6343 11.4345L14.0687 8.0002L10.6343 4.56588C10.3219 4.25346 10.3219 3.74693 10.6343 3.43451Z" fill="#5A8DF4"/>
<path fill-rule="evenodd" clip-rule="evenodd" d="M4.79999 8.0002C4.79999 7.55837 5.15816 7.2002 5.59999 7.2002H15.2C15.6418 7.2002 16 7.55837 16 8.0002C16 8.44202 15.6418 8.8002 15.2 8.8002H5.59999C5.15816 8.8002 4.79999 8.44202 4.79999 8.0002Z" fill="#5A8DF4"/>
</svg>
