<svg width="15" height="16" viewBox="0 0 15 16" fill="none" xmlns="http://www.w3.org/2000/svg">
<path fill-rule="evenodd" clip-rule="evenodd" d="M1.17157 10.7719C1.92172 10.0218 2.93913 9.60034 4 9.60034H10.4C11.4609 9.60034 12.4783 10.0218 13.2284 10.7719C13.9786 11.5221 14.4 12.5395 14.4 13.6003V15.2003C14.4 15.6422 14.0418 16.0003 13.6 16.0003C13.1582 16.0003 12.8 15.6422 12.8 15.2003V13.6003C12.8 12.9638 12.5471 12.3534 12.0971 11.9033C11.647 11.4532 11.0365 11.2003 10.4 11.2003H4C3.36348 11.2003 2.75303 11.4532 2.30294 11.9033C1.85286 12.3534 1.6 12.9638 1.6 13.6003V15.2003C1.6 15.6422 1.24183 16.0003 0.8 16.0003C0.358172 16.0003 0 15.6422 0 15.2003V13.6003C0 12.5395 0.421427 11.5221 1.17157 10.7719Z" fill="white"/>
<path fill-rule="evenodd" clip-rule="evenodd" d="M7.20001 1.6C5.87453 1.6 4.80001 2.67452 4.80001 4C4.80001 5.32548 5.87453 6.4 7.20001 6.4C8.5255 6.4 9.60001 5.32548 9.60001 4C9.60001 2.67452 8.5255 1.6 7.20001 1.6ZM3.20001 4C3.20001 1.79086 4.99087 0 7.20001 0C9.40915 0 11.2 1.79086 11.2 4C11.2 6.20914 9.40915 8 7.20001 8C4.99087 8 3.20001 6.20914 3.20001 4Z" fill="white"/>
</svg>
