<svg width="14" height="14" viewBox="0 0 14 14" fill="none" xmlns="http://www.w3.org/2000/svg">
<path fill-rule="evenodd" clip-rule="evenodd" d="M13.8136 0.186404C13.9865 0.359264 14.045 0.615866 13.9643 0.846603L9.50972 13.5739C9.42352 13.8201 9.19573 13.9888 8.93502 13.9995C8.67432 14.0101 8.43353 13.8605 8.32757 13.6221L5.88152 8.11848L0.377915 5.67243C0.139482 5.56646 -0.0101039 5.32568 0.00053218 5.06498C0.0111682 4.80427 0.179871 4.57648 0.426143 4.49028L13.1534 0.0357442C13.3841 -0.0450137 13.6407 0.0135439 13.8136 0.186404ZM2.36159 5.1613L6.62208 7.05485C6.76605 7.11884 6.88116 7.23395 6.94515 7.37792L8.8387 11.6384L12.3264 1.67363L2.36159 5.1613Z" fill="white"/>
</svg>
