<svg width="15" height="16" viewBox="0 0 15 16" fill="none" xmlns="http://www.w3.org/2000/svg">
<path fill-rule="evenodd" clip-rule="evenodd" d="M2.18182 2.90914C1.78016 2.90914 1.45455 3.23475 1.45455 3.63641V13.8182C1.45455 14.2199 1.78016 14.5455 2.18182 14.5455H12.3636C12.7653 14.5455 13.0909 14.2199 13.0909 13.8182V3.63641C13.0909 3.23475 12.7653 2.90914 12.3636 2.90914H2.18182ZM0 3.63641C0 2.43142 0.976833 1.45459 2.18182 1.45459H12.3636C13.5686 1.45459 14.5455 2.43142 14.5455 3.63641V13.8182C14.5455 15.0232 13.5686 16 12.3636 16H2.18182C0.976833 16 0 15.0232 0 13.8182V3.63641Z" fill="white"/>
<path fill-rule="evenodd" clip-rule="evenodd" d="M10.1818 0C10.5835 0 10.9091 0.325611 10.9091 0.727273V3.63636C10.9091 4.03803 10.5835 4.36364 10.1818 4.36364C9.78014 4.36364 9.45453 4.03803 9.45453 3.63636V0.727273C9.45453 0.325611 9.78014 0 10.1818 0Z" fill="white"/>
<path fill-rule="evenodd" clip-rule="evenodd" d="M4.36363 0C4.76529 0 5.0909 0.325611 5.0909 0.727273V3.63636C5.0909 4.03803 4.76529 4.36364 4.36363 4.36364C3.96196 4.36364 3.63635 4.03803 3.63635 3.63636V0.727273C3.63635 0.325611 3.96196 0 4.36363 0Z" fill="white"/>
<path fill-rule="evenodd" clip-rule="evenodd" d="M0 6.54539C0 6.14373 0.325611 5.81812 0.727273 5.81812H13.8182C14.2198 5.81812 14.5455 6.14373 14.5455 6.54539C14.5455 6.94705 14.2198 7.27266 13.8182 7.27266H0.727273C0.325611 7.27266 0 6.94705 0 6.54539Z" fill="white"/>
</svg>
