<svg width="130" height="65" viewBox="0 0 130 65" fill="none" xmlns="http://www.w3.org/2000/svg">
<path d="M15.584 44.68C15.2 46.36 14.6 47.656 13.784 48.568C13.016 49.48 11.744 49.936 9.968 49.936C8.48 49.936 7.376 49.672 6.656 49.144C5.984 48.664 5.648 47.824 5.648 46.624C5.648 46.096 5.72 45.592 5.864 45.112L14.648 10.264C14.6 10.264 13.04 10.432 9.968 10.768C6.272 11.056 3.968 11.296 3.056 11.488C2.096 11.152 1.352 10.648 0.824 9.976C0.344 9.256 0.104 8.416 0.104 7.456C0.104 6.688 0.368 5.968 0.896 5.296C1.472 4.576 2.144 4.048 2.912 3.712C5.312 3.232 8.672 2.824 12.992 2.488C17.312 2.152 22.856 1.792 29.624 1.408C33.08 1.264 35.408 1.12 36.608 0.975996C37.376 1.312 38.024 1.84 38.552 2.56C39.128 3.232 39.416 3.952 39.416 4.72C39.416 5.584 38.984 6.424 38.12 7.24C37.256 8.056 36.272 8.632 35.168 8.968L22.568 9.616C23.096 9.808 23.36 10.456 23.36 11.56C23.36 12.136 23.312 12.568 23.216 12.856C22.4 16.504 21.272 21.232 19.832 27.04C18.44 32.848 17.504 36.784 17.024 38.848C16.736 40.048 16.472 41.128 16.232 42.088C15.992 43.048 15.776 43.912 15.584 44.68ZM37.9631 50.512C33.7391 50.512 30.4511 49.072 28.0991 46.192C25.7471 43.312 24.5711 39.64 24.5711 35.176C24.5711 31.432 25.4591 27.904 27.2351 24.592C29.0591 21.28 31.5311 18.616 34.6511 16.6C37.7711 14.584 41.2031 13.576 44.9471 13.576C48.6431 13.576 51.6671 14.8 54.0191 17.248C56.4191 19.648 57.6191 23.2 57.6191 27.904C57.6191 31.216 56.7071 34.648 54.8831 38.2C53.0591 41.752 50.6111 44.704 47.5391 47.056C44.5151 49.36 41.3231 50.512 37.9631 50.512ZM39.0431 44.752C40.5791 44.752 42.1151 43.792 43.6511 41.872C45.2351 39.952 46.5311 37.528 47.5391 34.6C48.5471 31.672 49.0511 28.816 49.0511 26.032C49.0511 21.76 47.2751 19.624 43.7231 19.624C41.7551 19.624 39.9551 20.56 38.3231 22.432C36.6911 24.304 35.3951 26.632 34.4351 29.416C33.4751 32.152 32.9951 34.72 32.9951 37.12C32.9951 38.512 33.3071 39.808 33.9311 41.008C34.5551 42.16 35.3231 43.072 36.2351 43.744C37.1951 44.416 38.1311 44.752 39.0431 44.752ZM61.8536 45.832C61.8056 46.12 61.1576 48.736 59.9096 53.68C58.7096 58.672 57.8696 61.816 57.3896 63.112C57.1976 63.64 56.6216 64.024 55.6616 64.264C54.7016 64.552 54.0056 64.696 53.5736 64.696C52.5176 64.696 51.6536 64.36 50.9816 63.688C50.2616 63.016 49.8776 62.008 49.8296 60.664L54.8696 40C56.7896 32.464 58.3736 26.032 59.6216 20.704C59.6216 20.416 59.4536 19.648 59.1176 18.4C58.9736 17.632 58.8296 16.912 58.6856 16.24C58.5416 15.568 58.4456 15.064 58.3976 14.728C58.4936 14.104 58.9736 13.6 59.8376 13.216C60.7496 12.832 61.5896 12.64 62.3576 12.64C63.5096 12.64 64.6376 13.048 65.7416 13.864C66.8936 14.68 67.5416 15.664 67.6856 16.816L67.4696 18.688C69.6296 16 72.3896 14.656 75.7496 14.656C78.4856 14.656 80.8376 15.328 82.8056 16.672C84.8216 17.968 86.3576 19.744 87.4136 22C88.4696 24.208 88.9976 26.656 88.9976 29.344C88.9976 32.944 88.3016 36.328 86.9096 39.496C85.5176 42.664 83.4296 45.232 80.6456 47.2C77.8616 49.12 74.5016 50.08 70.5656 50.08C69.3176 50.08 67.7096 49.672 65.7416 48.856C63.7736 47.992 62.4776 46.984 61.8536 45.832ZM64.0856 36.688C63.9896 37.264 63.9416 37.672 63.9416 37.912C63.9896 39.112 64.3736 40.168 65.0936 41.08C65.8616 41.992 66.7496 42.712 67.7576 43.24C68.7656 43.72 69.6056 43.96 70.2776 43.96C72.3896 43.96 74.2376 43.168 75.8216 41.584C77.4536 39.952 78.7016 37.96 79.5656 35.608C80.4296 33.208 80.8616 30.928 80.8616 28.768C80.8616 26.752 80.3096 24.976 79.2056 23.44C78.1496 21.856 76.8056 21.064 75.1736 21.064C73.3496 21.064 71.8376 21.472 70.6376 22.288C69.4856 23.056 68.1656 24.256 66.6776 25.888L64.0856 36.688ZM125.309 0.615996C127.901 0.615996 129.197 1.96 129.197 4.648C129.197 5.272 129.173 5.704 129.125 5.944L128.981 6.736C128.933 7.12 128.765 7.432 128.477 7.672C128.237 7.912 127.733 8.248 126.965 8.68C126.773 8.824 126.389 9.064 125.813 9.4C125.237 9.736 124.709 10.12 124.229 10.552C123.557 11.128 122.021 12.856 119.621 15.736C117.269 18.568 115.709 20.44 114.941 21.352L111.341 25.744C111.821 26.416 113.525 28.6 116.453 32.296L120.413 37.48C123.965 42.28 125.717 45.304 125.669 46.552C125.669 47.32 125.357 48.016 124.733 48.64C123.917 49.36 123.005 49.72 121.997 49.72C120.845 49.72 119.165 48.616 116.957 46.408C113.453 43 109.565 38.56 105.293 33.088C101.357 37.792 98.1406 41.536 95.6446 44.32C93.1966 47.104 91.4926 48.832 90.5326 49.504C89.3806 50.224 88.3006 50.584 87.2926 50.584C87.0046 50.584 86.7886 50.536 86.6446 50.44C86.5006 50.344 86.3086 50.152 86.0686 49.864C85.8286 49.576 85.5166 49.288 85.1326 49C84.1246 48.232 83.6206 47.416 83.6206 46.552V46.264C83.7646 45.736 83.9086 45.376 84.0526 45.184L85.5646 43.888C86.6686 42.928 88.3966 41.056 90.7486 38.272C93.1486 35.44 96.3646 31.552 100.397 26.608C94.0606 17.776 90.6766 11.464 90.2446 7.672C90.1966 7.432 90.1726 7.072 90.1726 6.592C90.1726 5.728 90.2686 5.104 90.4606 4.72C90.7006 4.288 91.0606 3.976 91.5406 3.784C93.4126 2.968 95.0446 2.56 96.4366 2.56C98.3566 2.56 99.5806 3.328 100.109 4.864C100.109 5.152 100.157 5.584 100.253 6.16C100.589 9.136 102.677 13.432 106.517 19.048C113.045 11.032 117.317 6.04 119.333 4.072C121.733 1.768 123.725 0.615996 125.309 0.615996Z" fill="white"/>
</svg>
