<svg width="56" height="56" viewBox="0 0 56 56" fill="none" xmlns="http://www.w3.org/2000/svg">
<circle cx="28" cy="28" r="28" fill="white"/>
<path fill-rule="evenodd" clip-rule="evenodd" d="M39.4576 22.1108C39.7907 22.2822 40 22.6254 40 23V33C40 33.3746 39.7907 33.7178 39.4576 33.8892C39.1245 34.0606 38.7236 34.0315 38.4188 33.8137L31.4188 28.8137C31.156 28.626 31 28.323 31 28C31 27.6771 31.156 27.374 31.4188 27.1863L38.4188 22.1863C38.7236 21.9685 39.1245 21.9394 39.4576 22.1108ZM33.7205 28L38 31.0568V24.9432L33.7205 28Z" fill="#1C2B48"/>
<path fill-rule="evenodd" clip-rule="evenodd" d="M19 22C18.4477 22 18 22.4477 18 23V33C18 33.5523 18.4477 34 19 34H30C30.5523 34 31 33.5523 31 33V23C31 22.4477 30.5523 22 30 22H19ZM16 23C16 21.3431 17.3431 20 19 20H30C31.6569 20 33 21.3431 33 23V33C33 34.6569 31.6569 36 30 36H19C17.3431 36 16 34.6569 16 33V23Z" fill="#1C2B48"/>
</svg>
