<svg width="20" height="14" viewBox="0 0 20 14" fill="none" xmlns="http://www.w3.org/2000/svg">
<path fill-rule="evenodd" clip-rule="evenodd" d="M19.548 2.09236C19.8255 2.2352 20 2.52118 20 2.83334V11.1667C20 11.4788 19.8255 11.7648 19.548 11.9076C19.2704 12.0505 18.9363 12.0262 18.6823 11.8448L12.849 7.67811C12.63 7.52169 12.5 7.26913 12.5 7C12.5 6.73088 12.63 6.47832 12.849 6.32189L18.6823 2.15523C18.9363 1.97379 19.2704 1.94953 19.548 2.09236ZM14.7671 7L18.3333 9.54735V4.45266L14.7671 7Z" fill="white"/>
<path fill-rule="evenodd" clip-rule="evenodd" d="M2.5 1.99992C2.03976 1.99992 1.66667 2.37301 1.66667 2.83325V11.1666C1.66667 11.6268 2.03976 11.9999 2.5 11.9999H11.6667C12.1269 11.9999 12.5 11.6268 12.5 11.1666V2.83325C12.5 2.37301 12.1269 1.99992 11.6667 1.99992H2.5ZM0 2.83325C0 1.45254 1.11929 0.333252 2.5 0.333252H11.6667C13.0474 0.333252 14.1667 1.45254 14.1667 2.83325V11.1666C14.1667 12.5473 13.0474 13.6666 11.6667 13.6666H2.5C1.11929 13.6666 0 12.5473 0 11.1666V2.83325Z" fill="white"/>
</svg>
