<svg width="56" height="56" viewBox="0 0 56 56" fill="none" xmlns="http://www.w3.org/2000/svg">
<circle cx="28" cy="28" r="28" fill="white"/>
<path fill-rule="evenodd" clip-rule="evenodd" d="M27.4332 20.0987C27.7797 20.2652 28 20.6156 28 21V35C28 35.3844 27.7797 35.7348 27.4332 35.9013C27.0867 36.0678 26.6755 36.021 26.3753 35.7809L21.6492 32H18C17.4477 32 17 31.5523 17 31V25C17 24.4477 17.4477 24 18 24H21.6492L26.3753 20.2191C26.6755 19.979 27.0867 19.9322 27.4332 20.0987ZM26 23.0806L22.6247 25.7809C22.4474 25.9227 22.2271 26 22 26H19V30H22C22.2271 30 22.4474 30.0773 22.6247 30.2191L26 32.9194V23.0806Z" fill="#1C2B48"/>
<path fill-rule="evenodd" clip-rule="evenodd" d="M34.363 20.223C34.7536 19.8325 35.3868 19.8326 35.7773 20.2232C37.8394 22.286 38.9979 25.0834 38.9979 28.0002C38.9979 30.917 37.8394 33.7144 35.7773 35.7772C35.3868 36.1678 34.7536 36.1679 34.363 35.7774C33.9725 35.3869 33.9724 34.7538 34.3628 34.3632C36.0501 32.6754 36.9979 30.3867 36.9979 28.0002C36.9979 25.6137 36.0501 23.3249 34.3628 21.6372C33.9724 21.2466 33.9725 20.6134 34.363 20.223ZM30.833 23.753C31.2236 23.3625 31.8568 23.3626 32.2473 23.7532C33.3721 24.8783 34.004 26.4042 34.004 27.9952C34.004 29.5862 33.3721 31.112 32.2473 32.2372C31.8568 32.6278 31.2236 32.6279 30.833 32.2374C30.4425 31.8469 30.4424 31.2138 30.8328 30.8232C31.5827 30.0731 32.004 29.0558 32.004 27.9952C32.004 26.9345 31.5827 25.9173 30.8328 25.1672C30.4424 24.7766 30.4425 24.1434 30.833 23.753Z" fill="#1C2B48"/>
</svg>
