<svg width="140" height="140" viewBox="0 0 140 140" fill="none" xmlns="http://www.w3.org/2000/svg">
<mask id="mask0" mask-type="alpha" maskUnits="userSpaceOnUse" x="1" y="1" width="139" height="139">
<path d="M138.553 70.2197C138.553 107.959 107.959 138.553 70.2197 138.553C32.4801 138.553 1.88623 107.959 1.88623 70.2197C1.88623 32.4802 32.4801 1.88623 70.2197 1.88623C107.959 1.88623 138.553 32.4802 138.553 70.2197Z" fill="white" stroke="black"/>
</mask>
<g mask="url(#mask0)">
<path d="M70.2197 139.053C108.235 139.053 139.053 108.235 139.053 70.2197C139.053 32.204 108.235 1.38623 70.2197 1.38623C32.204 1.38623 1.38623 32.204 1.38623 70.2197C1.38623 108.235 32.204 139.053 70.2197 139.053Z" fill="#5A8DF4" stroke="#BFBFBF" stroke-opacity="0.394248" stroke-width="0.53352"/>
<path fill-rule="evenodd" clip-rule="evenodd" d="M40.6409 159.561H98.7313V129.449C98.7313 113.407 85.7273 100.403 69.6861 100.403C53.6449 100.403 40.6409 113.407 40.6409 129.449V159.561Z" fill="white" stroke="#373739" stroke-width="1.20618"/>
<path fill-rule="evenodd" clip-rule="evenodd" d="M40.8721 81.8169C40.8721 83.749 42.4348 85.3156 44.3623 85.3156C46.2898 85.3156 47.8525 83.749 47.8525 81.8169C47.8525 79.8847 46.2898 78.3181 44.3623 78.3181C42.4348 78.3181 40.8721 79.8847 40.8721 81.8169Z" fill="white" stroke="#373739" stroke-width="1.20618"/>
<path fill-rule="evenodd" clip-rule="evenodd" d="M94.7212 82.8166C94.7212 84.7488 96.2839 86.3154 98.2114 86.3154C100.139 86.3154 101.702 84.7488 101.702 82.8166C101.702 80.8844 100.139 79.3179 98.2114 79.3179C96.2839 79.3179 94.7212 80.8844 94.7212 82.8166Z" fill="white" stroke="#373739" stroke-width="1.20618"/>
<path fill-rule="evenodd" clip-rule="evenodd" d="M71.0568 110.429C85.4306 110.429 97.0829 98.2031 97.0829 83.121C97.0829 68.0388 85.4306 55.8118 71.0568 55.8118C56.6831 55.8118 45.0308 68.0388 45.0308 83.121C45.0308 98.2031 56.6831 110.429 71.0568 110.429Z" fill="#EBEBEB"/>
<path fill-rule="evenodd" clip-rule="evenodd" d="M97.0938 79.496C97.0938 64.4078 85.4365 52.1758 71.0568 52.1758C56.6771 52.1758 45.0198 64.4078 45.0198 79.496C45.0198 94.5841 57.4408 100.634 71.8205 100.634C86.2002 100.634 97.0938 94.5841 97.0938 79.496Z" fill="#FEFEFE"/>
<path fill-rule="evenodd" clip-rule="evenodd" d="M71.0568 110.429C85.4306 110.429 97.0829 98.2031 97.0829 83.121C97.0829 68.0388 85.4306 55.8118 71.0568 55.8118C56.6831 55.8118 45.0308 68.0388 45.0308 83.121C45.0308 98.2031 56.6831 110.429 71.0568 110.429Z" stroke="#373739" stroke-width="1.20618"/>
<path d="M84.5707 87.6325C82.693 85.7872 79.6475 85.7872 77.7688 87.6325" stroke="#231F20" stroke-width="1.20618" stroke-linecap="round" stroke-linejoin="round"/>
<path d="M65.6237 87.6325C63.746 85.7872 60.7005 85.7872 58.8218 87.6325" stroke="#231F20" stroke-width="1.20618" stroke-linecap="round" stroke-linejoin="round"/>
<g style="mix-blend-mode:multiply">
<path fill-rule="evenodd" clip-rule="evenodd" d="M67.5885 110.429C55.4692 119.653 50.4768 128.889 52.6112 138.138C54.7455 147.387 50.4768 148.048 39.8049 140.12C39.8049 120.301 44.7851 108.969 54.7455 106.123C58.7988 104.965 59.2161 107.613 61.1486 108.105C63.0263 108.582 65.1729 109.357 67.5885 110.429Z" fill="#EBEBEB"/>
</g>
<path fill-rule="evenodd" clip-rule="evenodd" d="M40.8721 55.4455C48.7396 69.4185 58.911 76.405 71.3862 76.405C83.8615 76.405 91.6398 73.1278 94.7212 66.5734L97.0828 84.8622C96.4287 81.0032 97.2932 79.0736 99.6762 79.0736L101.188 65.6219C101.188 56.6578 97.0298 50.9555 88.713 48.5148C85.5311 42.9703 79.7556 40.198 71.3862 40.198C58.8322 40.198 53.3917 47.4579 50.6221 53.1666C48.7757 56.9724 45.5257 57.7321 40.8721 55.4455Z" fill="#373739" stroke="#373739" stroke-width="1.21" stroke-linecap="round" stroke-linejoin="round"/>
<path d="M87.7405 55.4456C90.3337 54.0389 90.3337 51.7287 87.7405 48.5149" stroke="#373739" stroke-linecap="round" stroke-linejoin="round"/>
<path fill-rule="evenodd" clip-rule="evenodd" d="M45.0308 63.4387V78.318C46.9179 72.911 48.4809 69.7243 49.7197 68.7579C50.9585 67.7916 49.3956 66.0185 45.0308 63.4387Z" fill="#373739" stroke="#373739"/>
</g>
</svg>
